<svg width="24" height="24" viewBox="0 0 24 24" fill="none" xmlns="http://www.w3.org/2000/svg">
<path fill-rule="evenodd" clip-rule="evenodd" d="M8.26873 13.6966C8.22068 13.7562 8.17742 13.8205 8.13965 13.8889L7.44 15.156L7.404 15.3C7.404 15.468 7.536 15.6 7.704 15.6H20.4C21.0627 15.6 21.6 16.1373 21.6 16.8C21.6 17.1512 21.4492 17.4671 21.2088 17.6865C20.9954 17.8812 20.7116 18 20.4 18H7.2C6.63128 18 6.10711 17.7995 5.69467 17.4657C5.14985 17.0248 4.8 16.3513 4.8 15.6C4.8 15.18 4.908 14.784 5.1 14.448L6.3905 12.106C6.59739 11.7305 6.61113 11.2785 6.42741 10.8911L2.76139 3.16194C2.54068 2.69661 2.07172 2.4 1.5567 2.4H1.2C0.537258 2.4 0 1.86274 0 1.2C0 0.537258 0.537258 0 1.2 0H3.07741C3.59412 0 4.06432 0.298545 4.28411 0.766185L4.69189 1.63381C4.91168 2.10145 5.38188 2.4 5.89859 2.4H22.8C23.46 2.4 24 2.94 24 3.6C24 3.804 23.952 4.008 23.856 4.176L19.56 11.964C19.152 12.708 18.36 13.2 17.46 13.2H9.30688C8.9437 13.2 8.602 13.3477 8.35464 13.6C8.32456 13.6307 8.29588 13.6629 8.26873 13.6966ZM20.9428 19.9542C20.7839 19.786 20.6011 19.6407 20.4 19.5237C20.0465 19.318 19.6363 19.2 19.2 19.2C18.4932 19.2 17.8586 19.5097 17.4216 20C17.0425 20.4254 16.812 20.9868 16.812 21.6C16.812 22.92 17.88 24 19.2 24C20.52 24 21.6 22.92 21.6 21.6C21.6 20.9645 21.3497 20.3847 20.9428 19.9542ZM8.98502 20C8.5448 19.5097 7.90681 19.2 7.2 19.2C6.63056 19.2 6.10802 19.401 5.69789 19.7355C5.1573 20.1765 4.812 20.8494 4.812 21.6C4.812 22.92 5.88 24 7.2 24C8.52 24 9.6 22.92 9.6 21.6C9.6 20.9868 9.36694 20.4254 8.98502 20ZM8.55141 11.2867C8.5288 10.8581 8.42339 10.4324 8.23445 10.034L5.55373 4.38217C5.6675 4.39398 5.78258 4.4 5.89859 4.4H21.4483L17.8088 10.998L17.8064 11.0023C17.7435 11.1169 17.6174 11.2 17.46 11.2H9.30688C9.04935 11.2 8.79615 11.2297 8.55141 11.2867ZM7.2 21.2C6.9976 21.2 6.812 21.3715 6.812 21.6C6.812 21.8285 6.9976 22 7.2 22C7.41543 22 7.6 21.8154 7.6 21.6C7.6 21.3846 7.41543 21.2 7.2 21.2ZM19.2 21.2C18.9976 21.2 18.812 21.3715 18.812 21.6C18.812 21.8285 18.9976 22 19.2 22C19.4154 22 19.6 21.8154 19.6 21.6C19.6 21.3846 19.4154 21.2 19.2 21.2Z" fill="white"/>
</svg>
