<svg width="20" height="19" viewBox="0 0 20 19" fill="none" xmlns="http://www.w3.org/2000/svg">
<path d="M9.99995 18.5C8.81662 18.5 7.71262 18.2751 6.68795 17.8251C5.66262 17.3751 4.76662 16.7667 3.99995 16C3.23328 15.2334 2.62495 14.3374 2.17495 13.312C1.72495 12.2874 1.49995 11.1834 1.49995 10C1.49995 8.81672 1.72495 7.71272 2.17495 6.68805C2.62495 5.66272 3.23328 4.76672 3.99995 4.00005C4.76662 3.23338 5.66262 2.62505 6.68795 2.17505C7.71262 1.72505 8.81662 1.50005 9.99995 1.50005C11.1833 1.50005 12.2873 1.72505 13.312 2.17505C14.3373 2.62505 15.2333 3.23338 16 4.00005C16.7666 4.76672 17.375 5.66272 17.825 6.68805C18.275 7.71272 18.5 8.81672 18.5 10C18.5 11.1834 18.275 12.2874 17.825 13.312C17.375 14.3374 16.7666 15.2334 16 16C15.2333 16.7667 14.3373 17.3751 13.312 17.8251C12.2873 18.2751 11.1833 18.5 9.99995 18.5ZM9.24995 5.75005V9.92505C9.24995 10.0417 9.27062 10.154 9.31195 10.262C9.35395 10.3707 9.42495 10.475 9.52495 10.575L12.475 13.525C12.6083 13.6584 12.775 13.725 12.975 13.725C13.175 13.725 13.35 13.65 13.5 13.5C13.65 13.35 13.725 13.175 13.725 12.975C13.725 12.775 13.65 12.6 13.5 12.45L10.75 9.70005V5.72505C10.75 5.52505 10.6793 5.35405 10.538 5.21205C10.396 5.07072 10.2166 5.00005 9.99995 5.00005C9.78328 5.00005 9.60428 5.07072 9.46295 5.21205C9.32095 5.35405 9.24995 5.53338 9.24995 5.75005ZM1.44995 4.30005C1.29995 4.45005 1.12928 4.52505 0.937951 4.52505C0.745951 4.52505 0.574951 4.44172 0.424951 4.27505C0.274951 4.14172 0.199951 3.97072 0.199951 3.76205C0.199951 3.55405 0.274951 3.37505 0.424951 3.22505L3.24995 0.400049C3.38328 0.250049 3.54995 0.175049 3.74995 0.175049C3.94995 0.175049 4.12495 0.258382 4.27495 0.425049C4.42495 0.558382 4.49995 0.729382 4.49995 0.938049C4.49995 1.14605 4.42495 1.32505 4.27495 1.47505L1.44995 4.30005ZM18.525 4.27505L15.7 1.45005C15.55 1.30005 15.475 1.12905 15.475 0.937049C15.475 0.745716 15.5583 0.575049 15.725 0.425049C15.8583 0.275049 16.0293 0.200049 16.238 0.200049C16.446 0.200049 16.625 0.275049 16.775 0.425049L19.6 3.25005C19.75 3.38338 19.825 3.55005 19.825 3.75005C19.825 3.95005 19.7416 4.12505 19.575 4.27505C19.4416 4.42505 19.2706 4.50005 19.062 4.50005C18.854 4.50005 18.675 4.42505 18.525 4.27505ZM9.99995 17C11.95 17 13.604 16.3207 14.962 14.962C16.3206 13.604 17 11.95 17 10C17 8.05005 16.3206 6.39571 14.962 5.03705C13.604 3.67905 11.95 3.00005 9.99995 3.00005C8.04995 3.00005 6.39595 3.67905 5.03795 5.03705C3.67928 6.39571 2.99995 8.05005 2.99995 10C2.99995 11.95 3.67928 13.604 5.03795 14.962C6.39595 16.3207 8.04995 17 9.99995 17Z" fill="#333333"/>
</svg>
