<svg width="21" height="21" viewBox="0 0 21 21" fill="none" xmlns="http://www.w3.org/2000/svg">
<path d="M18.45 9.55L17.25 9L18.45 8.45L19 7.25L19.55 8.45L20.75 9L19.55 9.55L19 10.75L18.45 9.55ZM16.175 3.825L14.375 3L16.175 2.175L17 0.375L17.825 2.175L19.625 3L17.825 3.825L17 5.625L16.175 3.825ZM7 20.575C6.5 20.575 6.06667 20.4 5.7 20.05C5.33333 19.7 5.13333 19.275 5.1 18.775H8.9C8.86667 19.275 8.66667 19.7 8.3 20.05C7.93333 20.4 7.5 20.575 7 20.575ZM4 17.375C3.78333 17.375 3.60433 17.3043 3.463 17.163C3.321 17.021 3.25 16.8417 3.25 16.625C3.25 16.425 3.321 16.25 3.463 16.1C3.60433 15.95 3.78333 15.875 4 15.875H10C10.2167 15.875 10.396 15.95 10.538 16.1C10.6793 16.25 10.75 16.425 10.75 16.625C10.75 16.8417 10.6793 17.021 10.538 17.163C10.396 17.3043 10.2167 17.375 10 17.375H4ZM3.4 14.5C2.35 13.85 1.521 13 0.913 11.95C0.304333 10.9 0 9.75 0 8.5C0 6.55 0.679 4.89567 2.037 3.537C3.39567 2.179 5.05 1.5 7 1.5C8.95 1.5 10.6043 2.179 11.963 3.537C13.321 4.89567 14 6.55 14 8.5C14 9.75 13.696 10.9 13.088 11.95C12.4793 13 11.65 13.85 10.6 14.5H3.4ZM3.85 13H10.15C10.9 12.4667 11.479 11.8083 11.887 11.025C12.2957 10.2417 12.5 9.4 12.5 8.5C12.5 6.96667 11.9667 5.66667 10.9 4.6C9.83333 3.53333 8.53333 3 7 3C5.46667 3 4.16667 3.53333 3.1 4.6C2.03333 5.66667 1.5 6.96667 1.5 8.5C1.5 9.4 1.70433 10.2417 2.113 11.025C2.521 11.8083 3.1 12.4667 3.85 13Z" fill="#333333"/>
</svg>
