<svg width="16" height="16" viewBox="0 0 16 16" fill="none" xmlns="http://www.w3.org/2000/svg">
<path d="M15.775 15.7761C15.4754 16.0757 14.9898 16.0761 14.6896 15.7771L10.1822 11.2935C9.66537 11.7242 9.07097 12.0602 8.39905 12.3014C7.72712 12.5426 7.03797 12.6632 6.33159 12.6632C4.55702 12.6632 3.05812 12.0516 1.83487 10.8283C0.611623 9.60507 0 8.10616 0 6.33159C0 4.57425 0.611623 3.07948 1.83487 1.84727C3.05812 0.615758 4.55702 0 6.33159 0C8.08893 0 9.57922 0.611623 10.8025 1.83487C12.0257 3.05811 12.6373 4.55702 12.6373 6.33159C12.6373 7.07243 12.5167 7.77881 12.2755 8.45073C12.0343 9.12266 11.707 9.70844 11.2935 10.2081L15.775 14.6896C16.075 14.9896 16.075 15.476 15.775 15.7761ZM6.33159 11.1126C7.65821 11.1126 8.78256 10.6474 9.70465 9.71705C10.626 8.7867 11.0867 7.65821 11.0867 6.33159C11.0867 5.00497 10.626 3.87648 9.70465 2.94613C8.78256 2.01577 7.65821 1.55059 6.33159 1.55059C4.98774 1.55059 3.85512 2.01577 2.93372 2.94613C2.01164 3.87648 1.55059 5.00497 1.55059 6.33159C1.55059 7.65821 2.01164 8.7867 2.93372 9.71705C3.85512 10.6474 4.98774 11.1126 6.33159 11.1126Z" fill="#333333"/>
</svg>
